<?xml version="1.0" standalone="no"?><!DOCTYPE svg PUBLIC "-//W3C//DTD SVG 1.1//EN" "http://www.w3.org/Graphics/SVG/1.1/DTD/svg11.dtd"><svg t="1730983814505" class="icon" viewBox="0 0 1024 1024" version="1.1" xmlns="http://www.w3.org/2000/svg" p-id="2637" data-darkreader-inline-fill="" xmlns:xlink="http://www.w3.org/1999/xlink" width="200" height="200"><path d="M221.73101 387.803373c-56.402591 66.23861-110.488417 148.388609-111.032816 209.789027-0.208754 23.101137 7.163143 43.270503 24.855084 58.545394 25.462928 21.986757 53.509704 29.757744 81.424474 29.791513 40.793078 0.055259 81.302701-16.390295 113.017006-29.078269 53.417607-21.373797 643.86733-277.770328 643.86733-277.770328 5.691629-2.854001 4.626367-6.41306-2.49789-4.632507-2.870374 0.719384-642.798998 174.141132-642.798998 174.141132-12.351306 3.466961-24.966625 5.262864-37.245276 5.329379-49.181119 0.289596-92.939739-27.010167-92.588745-84.535325C198.874443 446.873724 205.767434 419.732573 221.73101 387.803373L221.73101 387.803373z" fill="#dddad6" p-id="2638" data-darkreader-inline-fill="" style="--darkreader-inline-fill: #2d3133;"></path></svg>